<?xml version="1.0" standalone="no"?>
<!DOCTYPE svg PUBLIC "-//W3C//DTD SVG 20010904//EN"
 "http://www.w3.org/TR/2001/REC-SVG-20010904/DTD/svg10.dtd">
<svg version="1.0" xmlns="http://www.w3.org/2000/svg"
 width="1500.000000pt" height="1500.000000pt" viewBox="0 0 1500.000000 1500.000000"
 preserveAspectRatio="xMidYMid meet">
<metadata>
Created by potrace 1.11, written by Peter Selinger 2001-2013
</metadata>
<g transform="translate(0.000000,1500.000000) scale(0.100000,-0.100000)"
fill="#000000" stroke="none">
<path d="M1367 11443 c-4 -3 -105 -7 -224 -8 -120 -1 -221 -3 -225 -4 -4 0 -8
-164 -8 -363 -2 -610 -2 -962 -1 -980 1 -15 128 -16 1817 -17 999 0 1818 -1
1820 -3 2 -2 -18 -35 -44 -74 -80 -117 -186 -269 -192 -274 -3 -3 -9 -12 -15
-22 -11 -19 -98 -144 -186 -268 -73 -104 -118 -168 -165 -239 -20 -30 -42 -60
-49 -67 -7 -8 -23 -30 -36 -51 -13 -21 -27 -42 -32 -48 -4 -5 -50 -71 -102
-145 -52 -74 -97 -140 -102 -145 -4 -6 -26 -37 -48 -70 -22 -33 -42 -62 -45
-65 -3 -3 -19 -25 -35 -50 -17 -25 -38 -54 -47 -64 -10 -11 -18 -25 -18 -32 0
-7 -4 -14 -8 -16 -4 -1 -33 -39 -63 -83 -30 -44 -75 -109 -101 -145 -25 -36
-59 -85 -77 -110 -17 -25 -53 -76 -79 -115 -26 -38 -50 -74 -55 -80 -11 -14
-65 -88 -74 -101 -5 -5 -12 -17 -18 -27 -11 -17 -81 -119 -144 -209 -85 -120
-110 -156 -187 -268 -156 -224 -178 -255 -184 -260 -4 -3 -9 -12 -13 -20 -4
-8 -34 -53 -67 -100 -34 -47 -82 -115 -107 -152 -25 -37 -52 -73 -59 -79 -8
-6 -14 -15 -14 -20 0 -7 -112 -170 -147 -214 -4 -5 -26 -37 -48 -70 -22 -33
-42 -62 -45 -65 -3 -3 -19 -25 -35 -50 -29 -43 -34 -51 -63 -85 -7 -8 -9 -15
-5 -15 4 0 3 -4 -2 -8 -6 -4 -53 -68 -104 -142 -52 -74 -98 -136 -103 -138 -4
-2 -8 -7 -8 -12 0 -8 -185 -279 -208 -306 -5 -5 -14 -20 -21 -31 -6 -12 -17
-27 -23 -35 -7 -7 -35 -46 -63 -87 -70 -103 -75 -111 -117 -168 -21 -28 -38
-54 -38 -57 0 -8 -18 -31 -42 -54 -10 -9 -18 -21 -18 -26 0 -5 -11 -23 -23
-40 -13 -17 -61 -84 -105 -149 l-82 -118 0 -590 0 -589 28 0 c83 -1 748 0 752
1 3 0 1119 2 2480 4 1361 1 2477 3 2480 4 3 0 5 307 6 681 l1 679 -1891 1
c-1040 1 -1903 1 -1918 1 -16 -1 -28 1 -28 5 0 5 84 136 103 159 13 16 108
153 178 255 35 52 67 97 70 100 3 3 30 41 59 85 30 44 78 114 107 155 29 41
58 82 63 90 12 18 106 150 117 166 4 5 13 18 18 27 9 15 31 47 185 266 30 43
84 121 119 172 35 52 73 104 84 117 11 12 17 22 12 22 -4 0 2 9 14 19 12 11
22 22 21 25 0 4 18 31 40 61 22 30 40 58 40 64 0 5 3 11 8 13 7 3 16 15 79
108 21 30 41 60 46 65 7 8 134 191 179 259 7 10 27 37 44 60 17 22 39 56 49
74 11 17 23 32 27 32 4 0 8 6 8 14 0 8 3 16 8 18 4 2 33 41 65 88 32 47 83
121 114 165 31 44 81 116 111 160 31 44 59 82 64 83 4 2 8 9 8 16 0 7 8 21 18
32 16 18 105 145 127 181 11 19 25 38 40 56 6 7 29 39 50 72 22 33 45 66 52
73 7 7 13 17 13 21 0 4 8 16 18 27 9 11 22 27 27 36 6 9 37 55 70 102 33 48
65 95 70 104 6 9 13 19 16 22 4 3 32 43 64 90 32 47 66 94 76 106 11 11 16 24
12 27 -3 4 -1 7 5 7 6 0 21 18 33 40 13 22 26 40 31 40 4 0 8 5 8 10 0 6 28
50 63 98 34 48 75 107 92 132 16 25 32 47 35 50 3 3 19 25 35 50 17 25 33 47
38 48 4 2 7 10 7 17 0 7 4 15 8 17 4 2 18 20 31 41 12 20 27 37 32 37 5 0 9 5
9 12 0 6 11 26 25 44 14 18 25 37 25 43 0 6 4 11 8 11 5 0 29 30 53 66 79 120
92 139 106 152 7 7 13 17 13 21 0 4 8 16 18 27 9 10 37 50 62 88 24 38 49 74
55 80 5 6 28 38 50 71 22 33 42 62 45 65 3 3 23 32 45 65 22 33 42 62 45 65 3
3 19 25 35 50 l31 45 -2 520 c-1 286 -2 527 -3 535 -1 13 -115 15 -958 15
-627 0 -961 -3 -965 -10 -5 -7 -8 -7 -8 0 0 6 -86 9 -242 7 -285 -3 -241 -3
-359 0 -52 1 -100 -2 -106 -5 -6 -4 -13 -4 -17 0 -9 9 -196 10 -223 1 -12 -4
-24 -4 -27 0 -5 9 -73 9 -82 0 -3 -3 -18 -3 -32 1 -15 5 -36 5 -47 1 -11 -4
-24 -5 -30 -2 -5 3 -39 5 -75 4 -74 -3 -69 -3 -135 1 -27 1 -58 -1 -67 -5 -9
-5 -19 -4 -22 1 -3 5 -21 5 -41 1 -22 -5 -35 -4 -35 2 0 7 -5 6 -13 -1 -8 -6
-17 -8 -20 -4 -8 7 -112 7 -124 0 -5 -3 -15 -2 -23 3 -8 5 -22 5 -32 -1 -12
-6 -18 -6 -18 0 0 7 -8 7 -24 1 -13 -5 -26 -6 -29 -4 -9 9 -70 10 -99 3 -16
-4 -28 -4 -28 1 0 5 -12 5 -27 1 -16 -5 -37 -5 -48 -1 -11 4 -34 4 -52 0 -18
-4 -34 -6 -37 -3 -2 3 -25 4 -50 3 -62 -1 -66 -1 -108 2 -20 2 -34 0 -32 -4 4
-7 -21 -5 -78 7 -10 2 -18 0 -18 -4 0 -7 -106 -4 -127 4 -6 2 -13 0 -15 -5 -2
-5 -19 -6 -41 -1 -20 5 -39 6 -41 2 -3 -4 -17 -6 -33 -5 -47 4 -73 5 -210 4
-73 -1 -137 2 -143 5 -5 3 -10 3 -10 -2 0 -4 -25 -8 -55 -8 -30 0 -55 4 -55 8
0 5 -6 5 -12 1 -15 -10 -50 -10 -64 -1 -6 3 -14 4 -17 0z"/>
<path d="M9497 11443 c-3 -3 -49 -5 -101 -6 -53 -1 -97 -4 -97 -7 -1 -3 -2
-1757 -3 -3898 -1 -2586 2 -3896 9 -3901 6 -4 884 -7 1952 -7 1069 1 1943 -3
1943 -7 0 -4 8 -3 19 2 10 6 20 8 23 6 3 -3 108 -6 168 -4 8 0 150 0 315 -1
165 0 321 -1 348 0 l47 0 0 685 0 685 -1427 0 c-786 0 -1499 0 -1585 0 l-157
0 0 758 c0 416 0 1869 -1 3229 l0 2471 -28 -7 c-15 -3 -45 -4 -67 -1 -22 3
-52 3 -66 -1 -15 -4 -32 -3 -40 1 -7 5 -20 5 -28 1 -9 -5 -25 -5 -36 -1 -11 4
-31 4 -45 0 -14 -4 -34 -4 -45 0 -15 5 -70 -4 -70 -12 0 -1 -10 4 -22 11 -16
8 -23 8 -23 1 0 -7 -6 -8 -17 -2 -10 4 -29 7 -43 5 -32 -4 -34 -4 -100 -4 -30
0 -63 0 -72 0 -18 0 -97 0 -120 0 -7 0 -29 2 -50 3 -20 2 -34 0 -31 -5 2 -4
-8 -5 -23 -1 -16 4 -35 7 -44 6 -13 -2 -39 -2 -105 -1 -5 0 -41 0 -80 0 -38 0
-78 0 -87 0 -10 0 -38 -1 -63 -1 -24 -1 -49 1 -55 5 -5 3 -10 2 -10 -4 0 -9
-37 -7 -67 4 -6 2 -13 1 -16 -2z"/>
</g>
</svg>
